HIERARCHY
ROOT hip
{
	OFFSET 0.000000 0.000000 0.000000 
	CHANNELS 6 Xposition Yposition Zposition Xrotation Zrotation Yrotation
	JOINT abdomen
	{
		OFFSET 0.000000 3.402643 0.000000 
		CHANNELS 3 Xrotation Zrotation Yrotation
		JOINT chest
		{
			OFFSET 0.000000 8.438565 -0.680529 
			CHANNELS 3 Xrotation Zrotation Yrotation
			JOINT neck
			{
				OFFSET 0.000000 10.207942 -0.272212 
				CHANNELS 3 Xrotation Zrotation Yrotation
				JOINT head
				{
					OFFSET 0.000000 3.130431 0.000000 
					CHANNELS 3 Xrotation Zrotation Yrotation
					End Site
					{
						OFFSET 0.000000 3.130435 0.000000 
					}
				}
			}
			JOINT lCollar
			{
				OFFSET 3.470700 6.669187 -0.816635 
				CHANNELS 3 Yrotation Zrotation Xrotation
				JOINT lShldr
				{
					OFFSET 3.198488 0.000000 0.000000 
					CHANNELS 3 Zrotation Yrotation Xrotation
					JOINT lForeArm
					{
						OFFSET 10.139888 0.000000 0.000000 
						CHANNELS 3 Yrotation Zrotation Xrotation
						JOINT lHand
						{
							OFFSET 8.370511 0.000000 0.000000 
							CHANNELS 3 Zrotation Yrotation Xrotation
							End Site
							{
								OFFSET 4.083176 0.000000 0.000000 
							}
						}
					}
				}
			}
			JOINT rCollar
			{
				OFFSET -3.470700 6.669187 -0.816635 
				CHANNELS 3 Yrotation Zrotation Xrotation
				JOINT rShldr
				{
					OFFSET -3.198488 0.000000 0.000000 
					CHANNELS 3 Zrotation Yrotation Xrotation
					JOINT rForeArm
					{
						OFFSET -10.139888 0.000000 0.000000 
						CHANNELS 3 Yrotation Zrotation Xrotation
						JOINT rHand
						{
							OFFSET -8.370511 0.000000 0.000000 
							CHANNELS 3 Zrotation Yrotation Xrotation
							End Site
							{
								OFFSET -4.083176 0.000000 0.000000 
							}
						}
					}
				}
			}
		}
	}
	JOINT lThigh
	{
		OFFSET 5.308129 -1.633274 1.361059 
		CHANNELS 3 Xrotation Zrotation Yrotation
		JOINT lShin
		{
			OFFSET -2.041588 -20.007561 0.000000 
			CHANNELS 3 Xrotation Zrotation Yrotation
			JOINT lFoot
			{
				OFFSET 0.000000 -19.190928 -1.224953 
				CHANNELS 3 Xrotation Yrotation Zrotation
				End Site
				{
					OFFSET 0.000000 -2.449906 4.627600 
				}
			}
		}
	}
	JOINT rThigh
	{
		OFFSET -5.308129 -1.633274 1.361059 
		CHANNELS 3 Xrotation Zrotation Yrotation
		JOINT rShin
		{
			OFFSET 2.041588 -20.007561 0.000000 
			CHANNELS 3 Xrotation Zrotation Yrotation
			JOINT rFoot
			{
				OFFSET 0.000000 -19.190928 -1.224953 
				CHANNELS 3 Xrotation Yrotation Zrotation
				End Site
				{
					OFFSET 0.000000 -2.449906 4.627600 
				}
			}
		}
	}
}
MOTION
Frames: 9
Frame Time: 0.033333
4.162156 23.699953 99.408829 -13.017578 12.128906 -169.277344 49.980469 -1.982422 9.755523 -4.882813 1.025391 4.130859 -39.033203 -2.470703 -7.217269 15.634764 8.955078 -8.095704 2.353516 14.716700 0.720184 -82.861328 -24.550781 28.384611 -76.875000 -1.796875 -5.332031 13.066406 -3.916016 -0.889337 12.529297 -9.218750 0.292969 93.945313 33.886719 15.205078 81.025391 2.597656 -22.266068 -20.283203 3.242188 -1.268979 -54.673351 33.328712 -15.481033 128.352859 4.466864 -2.665222 -2.410640 -24.584885 -8.320831 -103.278000 -19.646147 -21.973064 113.560364 -4.061486 2.734788 -29.958662 0.019310 7.310825 
4.132736 21.847273 99.849030 -12.304687 13.886719 -170.993744 54.306641 -2.255860 10.781250 -4.169922 2.080078 3.623401 -38.330078 -1.767578 -5.976563 13.886719 8.085938 -7.186127 1.367187 13.994140 0.673828 -81.562500 -24.443359 24.917835 -80.048828 -1.767578 -5.820012 14.121095 -3.720703 -0.947898 12.714844 -9.218749 0.322266 92.695313 37.500000 15.410156 81.601563 3.144531 -35.224609 -19.375000 6.816406 -2.235168 -61.510643 35.104847 -21.948925 134.861252 4.923358 -2.064956 4.985867 -27.153818 -5.385612 -107.205383 -21.444201 -24.791386 116.882637 -4.599579 2.941006 -28.317669 0.353309 7.703890 
4.145066 20.491667 100.171768 167.695328 164.521484 7.951824 58.154301 -2.685547 11.024933 -4.160156 2.783203 2.919922 -37.451172 -0.712891 -5.634887 12.656250 7.910156 -6.658812 0.732422 13.105442 0.476303 -80.546875 -24.453127 22.363285 -83.164063 -1.884766 -5.058273 15.341797 -2.558594 -0.673828 13.085938 -8.154297 0.302734 89.902344 40.371094 14.518044 82.363281 3.466797 -48.047462 -17.910156 8.662109 -2.654779 -68.992943 35.487461 -29.059053 140.853455 5.067165 -2.097549 10.285852 -27.640579 -2.569219 -110.368141 -23.366652 -26.906900 119.164497 -4.736047 3.026819 -27.064709 0.677273 7.676071 
4.265673 19.792074 100.421417 167.343765 163.818359 7.785924 60.097652 -3.193359 10.898437 -4.169922 2.607422 2.568359 -36.572266 0.166016 -5.800753 11.064454 8.085938 -6.863861 0.058594 12.568358 0.466625 -80.097656 -25.224611 20.122791 -85.224609 -1.787109 -3.993836 14.990235 -0.400391 -0.136787 13.281250 -6.738281 0.175781 87.382813 42.636719 13.017578 81.894531 3.613281 -55.927734 -16.357424 9.609376 -2.607422 -74.266792 34.970661 -33.505840 143.506775 5.526141 -2.124589 13.759373 -28.372053 -1.168530 -112.409294 -25.045834 -27.637325 119.881653 -4.588556 2.751211 -26.231100 1.572599 8.039627 
4.474415 19.726645 100.544952 166.640640 163.642578 7.785954 60.810547 -3.701171 10.761089 -3.818359 2.246094 2.402726 -36.220703 0.166016 -6.152315 9.833984 8.437500 -7.216797 -0.302734 12.558604 0.544751 -80.224609 -26.367188 19.390196 -85.595703 -1.787109 -4.345703 13.964845 1.806641 0.273747 13.125001 -5.849610 0.118183 86.748047 43.896484 11.129821 80.654297 3.583984 -60.878902 -15.087892 9.355469 -2.353516 -74.810699 35.498066 -34.079781 143.143585 5.357294 -1.837539 12.401828 -29.646313 -1.358321 -112.582603 -25.384863 -28.812119 119.712029 -4.579917 2.586741 -26.929918 1.799462 8.019764 
4.690361 20.164637 100.495026 166.113281 163.994141 7.776132 60.292969 -3.828125 10.526690 -3.466797 1.894531 2.402344 -36.738281 -0.888672 -6.338042 8.779297 8.251954 -8.094302 0.058594 12.216798 0.468750 -80.634766 -27.558592 20.078123 -83.994141 -1.679688 -3.837890 13.291016 3.007812 0.488281 12.763672 -6.191406 0.166016 87.988281 44.013672 10.214844 78.974609 3.750000 -63.759769 -13.974609 8.730469 -2.128906 -71.430901 36.366863 -30.715996 141.751083 5.067645 -1.888765 5.462626 -26.972511 -5.067882 -111.752861 -25.101913 -29.059740 118.799805 -4.569736 2.932525 -27.927591 1.957869 8.373948 
4.822442 20.960546 100.245743 -14.238280 15.292968 -171.872421 58.906250 -3.232422 10.332031 -3.125000 1.367188 2.236328 -38.330078 -1.767578 -6.337891 8.085938 7.910156 -8.943969 0.927734 11.699219 0.468750 -81.152344 -28.115238 21.835938 -80.273438 -1.748047 -2.782906 12.763671 3.193359 0.517578 12.236328 -6.533204 0.186658 89.833984 43.066406 10.166015 76.269531 3.750000 -63.154934 -12.480469 7.480468 -1.523437 -65.345306 36.160984 -23.500336 138.938049 4.892219 -1.814754 -2.602091 -19.225090 -7.803802 -109.623299 -24.369062 -29.183065 117.429504 -4.413935 2.547435 -29.108200 2.287198 8.680443 
4.858209 21.952497 99.793961 -14.238280 14.238279 -171.521042 55.947266 -2.197265 9.882813 -2.773438 1.357422 2.060547 -40.605469 -2.646484 -5.986779 7.197265 7.382812 -9.501953 2.333984 11.005859 0.380859 -82.070313 -28.847656 25.385912 -74.472656 -1.650391 -2.685266 12.626953 4.560547 0.703125 12.070312 -7.392578 0.351563 91.718750 41.054688 10.240790 72.294922 3.583984 -60.264282 -11.035156 7.011719 -1.268339 -58.856430 34.032928 -17.210752 135.565567 4.924670 -2.055705 -7.327110 -11.892817 -8.854464 -106.959900 -23.297979 -28.238100 116.185616 -4.228239 2.989275 -30.627903 1.726555 8.349791 
4.823662 23.077755 99.182632 -14.238280 13.183594 -170.993866 52.646484 -0.830078 9.521507 -3.291016 1.542969 2.060547 -43.066406 -2.646484 -5.635217 5.976563 6.845703 -10.029297 3.701172 10.693359 0.476704 -83.037109 -30.595707 30.175779 -68.505859 -1.767578 -2.734375 11.894531 7.470702 1.289062 11.708984 -7.568360 0.343083 93.183594 39.589844 10.416380 66.464844 3.544922 -56.758419 -10.693359 7.373047 -1.250000 -53.647987 30.350225 -14.374790 131.324280 4.756381 -2.566425 -8.677942 -8.974324 -8.642435 -103.600555 -22.057762 -27.383511 114.753807 -4.422786 3.244510 -31.499289 1.566888 8.708435 
